<?xml version="1.0" encoding="utf-8"?>
<!-- Generator: Adobe Illustrator 16.0.0, SVG Export Plug-In . SVG Version: 6.00 Build 0)  -->
<!DOCTYPE svg PUBLIC "-//W3C//DTD SVG 1.1//EN" "http://www.w3.org/Graphics/SVG/1.1/DTD/svg11.dtd">
<svg version="1.1" id="Layer_1" xmlns="http://www.w3.org/2000/svg" xmlns:xlink="http://www.w3.org/1999/xlink" x="0px" y="0px"
	 width="35px" height="35px" viewBox="0 0 100 100" enable-background="new 0 0 100 100" xml:space="preserve">

<path fill="#fcfcf8" d="M98.041,23.233c0,4.188-4.063,7.582-9.069,7.582H11.029c-5.007,0-9.07-3.394-9.07-7.582l0,0
	c0-4.185,4.063-7.58,9.07-7.58h77.942C93.978,15.654,98.041,19.049,98.041,23.233L98.041,23.233z"/>

<path fill="#fcfcf8" d="M98.041,74.483c0,4.186-4.063,7.58-9.069,7.58H11.029c-5.007,0-9.07-3.395-9.07-7.58l0,0
	c0-4.184,4.063-7.578,9.07-7.578h77.942C93.978,66.905,98.041,70.3,98.041,74.483L98.041,74.483z"/>
	
<path fill="#fcfcf8" d="M98.041,48.234c0,4.186-4.063,7.581-9.069,7.581H11.029c-5.007,0-9.07-3.395-9.07-7.581l0,0
	c0-4.187,4.063-7.582,9.07-7.582h77.942C93.978,40.653,98.041,44.048,98.041,48.234L98.041,48.234z"/>
</svg>
